<?xml version="1.0" standalone="no"?>
<!DOCTYPE svg PUBLIC "-//W3C//DTD SVG 20010904//EN"
 "http://www.w3.org/TR/2001/REC-SVG-20010904/DTD/svg10.dtd">
<svg version="1.0" xmlns="http://www.w3.org/2000/svg"
 width="184.000000pt" height="184.000000pt" viewBox="0 0 184.000000 184.000000"
 preserveAspectRatio="xMidYMid meet">
<metadata>
Created by potrace 1.14, written by Peter Selinger 2001-2017
</metadata>
<g transform="translate(0.000000,184.000000) scale(0.100000,-0.100000)"
fill="#000000" stroke="none">
<path d="M0 920 l0 -920 920 0 920 0 0 920 0 920 -920 0 -920 0 0 -920z m340
750 c0 -27 -3 -30 -30 -30 -27 0 -30 3 -30 30 0 27 3 30 30 30 27 0 30 -3 30
-30z m340 0 c0 -27 -3 -30 -30 -30 -27 0 -30 3 -30 30 0 27 3 30 30 30 27 0
30 -3 30 -30z m400 0 c0 -27 -3 -30 -30 -30 -28 0 -30 -2 -30 -40 0 -38 -2
-40 -30 -40 l-30 0 0 -60 0 -60 30 0 c27 0 30 3 30 30 0 27 3 30 30 30 27 0
30 3 30 30 l0 30 70 0 70 0 0 -30 0 -30 -70 0 -70 0 0 -30 c0 -27 -3 -30 -30
-30 -28 0 -30 -2 -30 -40 l0 -40 70 0 70 0 0 40 c0 38 2 40 30 40 28 0 30 -2
30 -40 l0 -40 40 0 40 0 0 40 c0 38 2 40 30 40 l30 0 0 -70 0 -70 30 0 30 0 0
-70 0 -70 40 0 40 0 0 -100 0 -100 30 0 c27 0 30 3 30 30 0 28 2 30 40 30 l40
0 0 70 0 70 -40 0 c-38 0 -40 2 -40 30 0 27 -3 30 -30 30 -28 0 -30 2 -30 40
0 38 2 40 30 40 28 0 30 -2 30 -40 l0 -40 40 0 c38 0 40 -2 40 -30 0 -27 3
-30 30 -30 l30 0 0 -70 0 -70 -30 0 c-27 0 -30 -3 -30 -30 0 -28 -2 -30 -40
-30 l-40 0 0 -40 c0 -38 -2 -40 -30 -40 -27 0 -30 -3 -30 -30 0 -28 -2 -30
-40 -30 -39 0 -40 -1 -40 -35 0 -32 -2 -35 -30 -35 -28 0 -30 -3 -30 -35 l0
-35 -100 0 -100 0 0 -30 0 -30 130 0 130 0 0 30 0 30 70 0 70 0 0 35 c0 34 1
35 40 35 39 0 40 1 40 35 0 32 2 35 30 35 28 0 30 -3 30 -35 0 -32 -2 -35 -30
-35 -28 0 -30 -3 -30 -35 0 -34 -1 -35 -40 -35 -38 0 -40 -2 -40 -30 l0 -30
-70 0 -70 0 0 -40 0 -40 -100 0 -100 0 0 -30 0 -30 -170 0 -170 0 0 -35 c0
-32 -2 -35 -30 -35 -28 0 -30 3 -30 35 0 33 -2 35 -35 35 -33 0 -35 -2 -35
-35 l0 -35 -65 0 -65 0 0 35 c0 34 -1 35 -40 35 -38 0 -40 2 -40 30 l0 30 -65
0 -65 0 0 40 c0 39 -1 40 -35 40 -32 0 -35 2 -35 30 0 27 -3 30 -30 30 l-30 0
0 70 0 70 30 0 c27 0 30 3 30 30 0 27 -3 30 -30 30 -28 0 -30 2 -30 40 l0 40
-40 0 c-38 0 -40 2 -40 30 0 27 -3 30 -30 30 l-30 0 0 140 0 140 30 0 c27 0
30 3 30 30 0 28 2 30 40 30 l40 0 0 40 c0 38 2 40 30 40 28 0 30 -2 30 -40 0
-38 -2 -40 -30 -40 -27 0 -30 -3 -30 -30 0 -28 -2 -30 -40 -30 l-40 0 0 -100
0 -100 40 0 40 0 0 -70 0 -70 30 0 c28 0 30 -2 30 -40 0 -39 1 -40 35 -40 34
0 35 1 35 40 l0 40 65 0 65 0 0 -40 0 -40 40 0 40 0 0 40 c0 38 2 40 30 40
l30 0 0 100 0 100 -30 0 c-27 0 -30 -3 -30 -30 0 -28 -2 -30 -40 -30 l-40 0 0
-40 0 -40 -65 0 -65 0 0 40 c0 39 -1 40 -35 40 l-35 0 0 60 0 60 35 0 c34 0
35 1 35 40 0 39 1 40 35 40 32 0 35 2 35 30 0 27 3 30 30 30 28 0 30 2 30 40
l0 40 40 0 c38 0 40 2 40 30 0 27 3 30 30 30 27 0 30 3 30 30 0 28 3 30 35 30
34 0 35 1 35 40 l0 40 105 0 105 0 0 30 0 30 60 0 60 0 0 -30z m-880 -140 c0
-27 -3 -30 -30 -30 -27 0 -30 3 -30 30 0 27 3 30 30 30 27 0 30 -3 30 -30z
m1360 -130 c0 -38 -2 -40 -30 -40 -28 0 -30 2 -30 40 0 38 2 40 30 40 28 0 30
-2 30 -40z m-740 -1090 c0 -28 -3 -30 -35 -30 -32 0 -35 2 -35 30 0 28 3 30
35 30 32 0 35 -2 35 -30z m140 0 c0 -28 -2 -30 -40 -30 -38 0 -40 2 -40 30 0
28 2 30 40 30 38 0 40 -2 40 -30z"/>
<path d="M540 1330 c0 -27 -3 -30 -30 -30 -28 0 -30 -2 -30 -40 0 -38 2 -40
30 -40 28 0 30 2 30 40 l0 40 70 0 70 0 0 -70 0 -70 70 0 70 0 0 -70 0 -70
-35 0 -35 0 0 -70 0 -70 65 0 65 0 0 -30 0 -30 -100 0 -100 0 0 30 c0 27 -3
30 -30 30 -27 0 -30 -3 -30 -30 0 -27 3 -30 30 -30 28 0 30 -3 30 -35 l0 -35
100 0 100 0 0 35 0 35 170 0 170 0 0 30 c0 28 2 30 40 30 l40 0 0 40 c0 38 2
40 30 40 l30 0 0 70 0 70 -30 0 -30 0 0 -70 0 -70 -40 0 -40 0 0 -40 0 -40
-100 0 -100 0 0 40 c0 38 -2 40 -30 40 -27 0 -30 3 -30 30 0 28 -2 30 -40 30
l-40 0 0 100 0 100 70 0 70 0 0 -30 c0 -27 3 -30 30 -30 27 0 30 -3 30 -30 0
-28 2 -30 40 -30 38 0 40 2 40 30 0 27 3 30 30 30 27 0 30 3 30 30 l0 30 -100
0 -100 0 0 40 0 40 -70 0 -70 0 0 -40 c0 -38 -2 -40 -30 -40 -28 0 -30 2 -30
40 0 39 -1 40 -35 40 -32 0 -35 2 -35 30 l0 30 -105 0 -105 0 0 -30z m340
-340 c0 -27 -3 -30 -30 -30 -27 0 -30 3 -30 30 0 27 3 30 30 30 27 0 30 -3 30
-30z"/>
<path d="M410 850 c0 -28 -3 -30 -35 -30 l-35 0 0 -70 0 -70 70 0 70 0 0 -30
c0 -27 3 -30 30 -30 28 0 30 -2 30 -40 l0 -40 40 0 c38 0 40 -2 40 -30 0 -27
3 -30 30 -30 27 0 30 3 30 30 l0 30 240 0 240 0 0 40 0 40 -240 0 -240 0 0 30
0 30 -70 0 -70 0 0 35 0 35 -65 0 -65 0 0 35 c0 33 2 35 35 35 32 0 35 2 35
30 0 28 -3 30 -35 30 -32 0 -35 -2 -35 -30z m270 -270 c0 -38 -2 -40 -30 -40
-28 0 -30 2 -30 40 0 38 2 40 30 40 28 0 30 -2 30 -40z"/>
</g>
</svg>
